PathFileType	4	(X/Y/Z)	Kaydara	
DataRate	CameraRate	NumFrames	NumMarkers	Units	OrigDataRate	OrigDataStartFrame	OrigNumFrames	
60.00	60.00	4	74	mm	60.00	929	121	
Frame#	Time	Z_lasi			Z_rasi			Z_rpsi			Z_lpsi			Z_fneck			Z_bneck			Z_fhead			Z_rhead			Z_lhead			Z_rshld			Z_relbtop			Z_relbext			Z_relblow			Z_rwrext			Z_rwrtop			Z_rwrlow			Z_lshld			Z_lelbext			Z_lelblow			Z_lelbtop			Z_lwrext			Z_lwrtop			Z_lwrlow			Z_rtopleg			Z_ltopleg			Z_rkneefr			Z_rkneebk			Z_rkneeis			Z_lkneefr			Z_lknssbk			Z_lkneeis			Z_rankfr			Z_rankis			Z_rankbk			Z_lankfr			Z_lankbk			Z_lankis			A_lasi			A_rasi			A_rpsi			A_lpsi			A_fneck			A_bneck			A_fhead			A_rhead			A_lhead			A_rshld			A_relbtop			A_relbext			A_relblow			A_rwrext			A_rwrtop			A_rwrlow			A_lshld			A_lelbext			A_lelblow			A_lelbtop			A_lwrext			A_lwrtop			A_lwrlow			A_rtopleg			A_ltopleg			A_rkneefr			A_rkneebk			A_rkneeis			A_lkneefr			A_lknssbk			A_lkneeis			A_rankfr			A_rankis			A_rankbk			A_lankfr			A_lankbk			A_lankis			
		X1	Y1	Z1	X2	Y2	Z2	X3	Y3	Z3	X4	Y4	Z4	X5	Y5	Z5	X6	Y6	Z6	X7	Y7	Z7	X8	Y8	Z8	X9	Y9	Z9	X10	Y10	Z10	X11	Y11	Z11	X12	Y12	Z12	X13	Y13	Z13	X14	Y14	Z14	X15	Y15	Z15	X16	Y16	Z16	X17	Y17	Z17	X18	Y18	Z18	X19	Y19	Z19	X20	Y20	Z20	X21	Y21	Z21	X22	Y22	Z22	X23	Y23	Z23	X24	Y24	Z24	X25	Y25	Z25	X26	Y26	Z26	X27	Y27	Z27	X28	Y28	Z28	X29	Y29	Z29	X30	Y30	Z30	X31	Y31	Z31	X32	Y32	Z32	X33	Y33	Z33	X34	Y34	Z34	X35	Y35	Z35	X36	Y36	Z36	X37	Y37	Z37	X38	Y38	Z38	X39	Y39	Z39	X40	Y40	Z40	X41	Y41	Z41	X42	Y42	Z42	X43	Y43	Z43	X44	Y44	Z44	X45	Y45	Z45	X46	Y46	Z46	X47	Y47	Z47	X48	Y48	Z48	X49	Y49	Z49	X50	Y50	Z50	X51	Y51	Z51	X52	Y52	Z52	X53	Y53	Z53	X54	Y54	Z54	X55	Y55	Z55	X56	Y56	Z56	X57	Y57	Z57	X58	Y58	Z58	X59	Y59	Z59	X60	Y60	Z60	X61	Y61	Z61	X62	Y62	Z62	X63	Y63	Z63	X64	Y64	Z64	X65	Y65	Z65	X66	Y66	Z66	X67	Y67	Z67	X68	Y68	Z68	X69	Y69	Z69	X70	Y70	Z70	X71	Y71	Z71	X72	Y72	Z72	X73	Y73	Z73	X74	Y74	Z74	

1	15.467	-160.50306	1035.07034	689.31137	-218.51833	1022.69302	480.42313	-68.76916	1125.56335	400.14690	7.82031	1134.73915	638.18775	-448.97938	1290.52216	592.38091	-370.19424	1383.37311	612.07203	-512.91332	1227.49069	488.13454	-520.22804	1393.75565	512.85534	-527.63958	1311.09650	636.01624	-306.45794	1387.70355	401.28010	-94.13417	1236.70982	209.18463	-53.12418	1223.39333	258.16097	-150.54952	1200.34866	263.25113	-133.34196	985.39619	271.39023	-141.99831	1000.22972	314.15447	-99.37799	996.07574	330.66177	-376.36322	1290.63400	761.81458	-245.15444	1011.07788	658.07648	-329.34982	1020.59929	625.58674	-310.12630	990.07095	684.28314	-259.71867	869.99374	433.65513	-286.54139	829.12224	438.97449	-256.95541	813.40157	472.02599	-87.89186	922.79961	357.01107	-28.44792	895.48370	718.18382	-188.97717	428.22063	405.64301	-117.02303	448.03307	353.48057	-120.79267	426.60164	476.41010	-122.95596	454.13017	687.76230	-16.36837	466.84036	662.66701	-123.21550	448.69049	593.33546	-186.30962	184.51674	376.66294	-162.66958	174.98985	438.45726	-112.20026	165.48285	367.86823	-100.25606	164.91398	681.72829	-51.45810	159.29245	616.93378	-129.62038	178.07552	616.40617	-978.14270	1034.43298	474.09122	-966.56075	1039.87411	632.95799	-1126.30432	1033.56079	653.26080	-1102.86339	1039.90501	470.33184	-1059.77112	1375.68481	570.38074	-1191.14059	1422.52716	571.84315	-977.79434	1564.42825	555.48805	-1112.68814	1569.88144	662.28149	-1138.13255	1562.96478	500.63004	-1119.38858	1353.31879	748.49663	-959.58763	1120.15709	739.64462	-996.42036	1071.88889	717.25693	-958.25752	1129.34387	683.59703	-734.26857	1077.66434	659.23294	-733.35899	1090.21408	703.17451	-741.42387	1127.38503	689.48257	-1098.76114	1353.75961	395.20748	-1107.40219	1041.14273	371.64677	-1039.88525	1054.37462	394.63146	-1065.34256	1050.97328	346.76342	-997.18521	832.96921	384.69837	-1000.94765	831.74973	343.55572	-958.03452	844.54796	352.68051	-1066.00075	875.62225	732.39449	-1031.75270	889.49600	395.99560	-1025.00931	451.81908	640.88783	-1132.61551	486.82457	685.64980	-1112.22572	486.42300	567.45674	-1009.58916	464.08669	509.24213	-1094.88297	480.24223	413.75267	-1117.01920	479.67991	538.02338	-1098.51463	166.07622	663.25943	-1131.58493	163.09814	597.36683	-1179.94400	154.66988	666.47011	-1066.99135	166.18723	457.03457	-1128.06740	168.33345	421.65108	-1126.32408	173.49459	511.04469 
2	15.483	-160.46564	1035.39192	689.82132	-218.40757	1023.19069	480.73776	-68.36486	1125.45700	400.42007	8.07655	1134.65683	638.49979	-447.77943	1291.63712	591.73119	-369.03019	1384.46823	611.52351	-512.34989	1228.29605	488.37654	-519.38366	1394.72488	512.49367	-526.69548	1312.54257	635.93235	-304.36584	1387.43912	400.69901	-94.43120	1234.23012	207.41224	-53.07621	1220.70412	256.00189	-150.40044	1198.13805	262.12551	-133.95036	982.89619	270.24122	-141.66297	998.00514	313.14577	-98.69149	993.18779	328.62762	-375.87952	1292.19086	761.42075	-245.89844	1011.56670	659.17435	-330.07401	1021.34827	626.48018	-310.79882	991.07452	685.45624	-260.37048	869.45763	435.60230	-287.12357	828.56125	441.17847	-257.45296	812.95921	474.07787	-88.27715	922.71721	357.31266	-28.30036	895.50064	718.62740	-189.42543	428.15693	406.10283	-117.36900	448.08964	353.74516	-120.92573	426.54575	476.57085	-123.19218	454.03290	688.06221	-16.80794	466.86394	663.08426	-123.60889	448.69495	593.73753	-186.47474	184.45190	376.84246	-162.75364	174.97837	438.64441	-112.43546	165.52799	368.01777	-100.35030	164.84238	681.76620	-51.63700	159.30994	617.01752	-129.77569	178.08523	616.49086	-978.14171	1034.43741	474.02225	-966.64871	1039.89189	632.89787	-1126.36520	1033.64883	653.16414	-1102.82600	1039.94156	470.31944	-1059.69666	1375.82993	570.33234	-1191.31500	1422.33963	571.58970	-978.14095	1564.92462	556.03504	-1113.61954	1569.73831	662.48787	-1138.36929	1563.05252	500.63202	-1119.40796	1353.42361	748.34869	-959.67415	1120.39955	739.68567	-996.51024	1071.87141	717.21161	-958.31650	1129.33609	683.56659	-734.39766	1077.51808	659.36462	-733.46703	1089.99130	703.22327	-741.50589	1127.24815	689.58977	-1098.52203	1353.81104	395.06699	-1107.29858	1041.19293	371.59233	-1039.74960	1054.39003	394.59290	-1065.21507	1050.98930	346.71318	-997.21375	832.89932	384.73415	-1000.93925	831.72134	343.51753	-958.01109	844.49303	352.74147	-1066.14204	875.64034	732.35703	-1031.81984	889.47395	396.04553	-1025.13924	451.83022	640.85587	-1132.74940	486.84116	685.62538	-1112.32651	486.40244	567.41314	-1009.65828	464.08829	509.15680	-1094.99702	480.23830	413.73684	-1117.12990	479.67251	537.98122	-1098.58284	166.08101	663.25928	-1131.62643	163.08340	597.37114	-1180.01587	154.65362	666.47263	-1067.03392	166.19204	457.02408	-1128.09776	168.31503	421.61972	-1126.33873	173.47219	511.03035 
3	15.500	-160.51035	1035.76210	690.22804	-218.28373	1023.56895	481.08677	-67.99792	1125.27214	400.65998	8.30077	1134.59160	638.80722	-446.66817	1292.70660	590.88219	-367.95479	1385.51773	610.77572	-511.47957	1229.08630	488.46191	-518.43952	1395.57129	511.94675	-525.65281	1313.88046	635.80082	-302.35273	1386.92337	400.05299	-95.37312	1231.85211	205.35463	-53.25707	1218.32237	253.34667	-150.72166	1196.05606	260.75411	-134.98841	980.74654	269.25909	-141.66950	996.01532	312.24266	-98.39285	990.77240	326.86924	-375.59238	1293.90915	760.82588	-246.19564	1012.39761	660.56038	-330.40550	1022.12410	627.20505	-311.23301	992.14783	686.38741	-260.89466	869.12369	437.30091	-287.47583	828.04436	443.11344	-257.29004	812.57179	475.96786	-88.70974	922.57942	357.79110	-28.12091	895.56023	719.09920	-189.71943	428.13572	406.58955	-117.66214	448.12416	354.11957	-121.32339	426.59527	476.90830	-123.42696	453.95218	688.39355	-17.31610	466.85146	663.66455	-124.06709	448.71460	594.23862	-186.61150	184.39089	377.04155	-162.97600	175.01966	438.87691	-112.66224	165.53196	368.23227	-100.29653	164.73507	681.73447	-51.75963	159.42197	617.15164	-129.92785	178.06967	616.61762	-978.11256	1034.43604	473.94138	-966.69960	1039.90479	632.80071	-1126.40915	1033.71506	653.07220	-1102.81097	1039.95773	470.23273	-1059.60434	1375.93964	570.22694	-1191.37932	1422.18582	571.25763	-978.51440	1565.30136	556.56273	-1114.21303	1569.63989	662.50267	-1138.54568	1563.15811	500.66189	-1119.43901	1353.49106	748.19557	-959.80003	1120.39696	739.65462	-996.62239	1071.88103	717.16370	-958.36311	1129.32152	683.52112	-734.49539	1077.35069	659.41231	-733.58383	1089.83803	703.32619	-741.62140	1127.10007	689.69162	-1098.35838	1353.83698	394.91821	-1107.14485	1041.23978	371.46854	-1039.61761	1054.38339	394.51515	-1065.05455	1051.01379	346.63464	-997.19246	832.86263	384.74419	-1000.86800	831.72173	343.46855	-957.96974	844.45358	352.81155	-1066.27892	875.65353	732.28264	-1031.76369	889.44366	396.04664	-1025.29533	451.82831	640.82977	-1132.88689	486.87260	685.58784	-1112.44476	486.41205	567.37431	-1009.72069	464.05422	509.09325	-1095.10986	480.21549	413.73081	-1117.27112	479.68719	537.94407	-1098.65318	166.07004	663.25211	-1131.66000	163.07745	597.36450	-1180.05127	154.62249	666.44577	-1067.07993	166.16901	457.01855	-1128.13187	168.28472	421.61934	-1126.40259	173.48352	511.01807 
4	15.517	-160.55882	1036.22536	690.63477	-218.16259	1023.78494	481.50616	-67.62765	1125.02846	400.90626	8.52710	1134.55948	639.12697	-445.59105	1293.90244	589.96948	-366.91360	1386.69357	609.96422	-510.82577	1229.79187	488.62160	-517.56084	1396.37192	511.26411	-524.84825	1315.42206	635.57137	-300.73574	1386.32050	399.43272	-96.49653	1229.68773	203.14308	-53.62862	1216.19057	250.48956	-151.38354	1194.20631	259.24534	-136.34519	978.81630	268.27991	-142.04221	994.25835	311.34909	-98.57931	988.75999	325.13248	-375.04883	1295.51834	760.31372	-246.28834	1013.15979	661.49086	-330.14610	1022.97089	628.05634	-311.82947	993.23013	687.15584	-261.12026	868.99696	438.59169	-287.54786	827.88849	444.64664	-257.13932	812.42783	477.40974	-88.76520	922.54745	358.26061	-28.14343	895.58403	719.54193	-189.83313	428.06175	406.93993	-117.93879	448.13572	354.58374	-121.62725	426.55174	477.30473	-124.04919	453.96576	688.94852	-17.70815	466.88713	664.05464	-124.43957	448.76076	594.67827	-186.70795	184.33527	377.27142	-163.04724	174.90381	439.02386	-112.85050	165.54222	368.44948	-100.25496	164.59181	681.73218	-51.94094	159.53369	617.37316	-130.08802	178.07791	616.74194	-978.06541	1034.41727	473.87482	-966.85036	1039.93958	632.71656	-1126.44043	1033.75122	652.98958	-1102.74277	1039.96361	470.12753	-1059.52835	1376.03561	570.11147	-1191.49734	1422.01599	570.91179	-978.84689	1565.65552	557.27924	-1114.80606	1569.38873	662.66479	-1138.62976	1563.28445	500.71320	-1119.52377	1353.54156	748.01636	-959.89876	1120.28954	739.56131	-996.76651	1071.87790	717.08939	-958.46565	1129.28696	683.45566	-734.64882	1077.19864	659.46678	-733.70384	1089.74014	703.35876	-741.74576	1126.95030	689.74960	-1098.18466	1353.84689	394.74621	-1106.98410	1041.25107	371.34823	-1039.47350	1054.39102	394.43794	-1064.89807	1050.99045	346.53717	-997.23610	832.83310	384.67628	-1000.77477	831.68640	343.44025	-957.86964	844.38606	352.88334	-1066.37184	875.70015	732.28523	-1031.80565	889.46671	395.97153	-1025.42191	451.85120	640.83916	-1133.01109	486.85665	685.61562	-1112.52182	486.42948	567.34657	-1009.88235	464.06548	509.11301	-1095.17563	480.19684	413.71124	-1117.35367	479.68117	537.91206	-1098.54576	166.19890	663.10486	-1131.66626	163.07974	597.33093	-1180.06836	154.62420	666.46202	-1067.08839	166.16541	457.01099	-1128.15956	168.27206	421.62830	-1126.45058	173.47511	511.03741 
